<svg version="1.1" xmlns="http://www.w3.org/2000/svg" style="display: block;" viewBox="0 0 2048 2048" width="64" height="64" preserveAspectRatio="none" xmlns:c2pa="http://c2pa.org/manifest"><metadata><c2pa:manifest>AAAMZ2p1bWIAAAAeanVtZGMycGEAEQAQgAAAqgA4m3EDYzJwYQAAAAxBanVtYgAAAEdqdW1kYzJtYQARABCAAACqADibcQN1cm46YzJwYTo1NzdlOThlZi1hYmYxLTRhOWYtYmQ0MS03NzVkNWQwOTAyN2MAAAAB4mp1bWIAAAApanVtZGMyYXMAEQAQgAAAqgA4m3EDYzJwYS5hc3NlcnRpb25zAAAAAO1qdW1iAAAAQWp1bWRjYm9yABEAEIAAAKoAOJtxE2MycGEuYWN0aW9ucy52MgAAAAAYYzJzaIziV9Nw2n/pS5VcNgAP9PMAAACkY2JvcqFnYWN0aW9uc4GjZmFjdGlvbmxjMnBhLmNyZWF0ZWRxZGlnaXRhbFNvdXJjZVR5cGV4Rmh0dHA6Ly9jdi5pcHRjLm9yZy9uZXdzY29kZXMvZGlnaXRhbHNvdXJjZXR5cGUvdHJhaW5lZEFsZ29yaXRobWljTWVkaWFrZGVzY3JpcHRpb252Q3JlYXRlZCBieSBSZWNyYWZ0IEFJLgAAAMRqdW1iAAAAQGp1bWRjYm9yABEAEIAAAKoAOJtxE2MycGEuaGFzaC5kYXRhAAAAABhjMnNoVx5Zz3ykQZYAbfuL8HQRBAAAAHxjYm9ypWpleGNsdXNpb25zgaJlc3RhcnQY22ZsZW5ndGgZEIxkbmFtZW5qdW1iZiBtYW5pZmVzdGNhbGdmc2hhMjU2ZGhhc2hYIE+QtrGW4rwHGAmvbc5vEtqyTjmS1WGNQS57cJljJPu+Y3BhZEkAAAAAAAAAAAAAAAI0anVtYgAAACdqdW1kYzJjbAARABCAAACqADibcQNjMnBhLmNsYWltLnYyAAAAAgVjYm9ypmppbnN0YW5jZUlEeCx4bXA6aWlkOjc3ZDEyYzAzLWE2M2UtNDUxNi1iZGQwLWRlYmM5MmZhNTI3NnRjbGFpbV9nZW5lcmF0b3JfaW5mb6NkbmFtZWpyZWNyYWZ0LmFpZ3ZlcnNpb254KDgxY2U4MmUyYzVjM2NiZmJlOGM2ZmJlMTc5ZDVmOGQ5MWM0MDljZTF3b3JnLmNvbnRlbnRhdXRoLmMycGFfcnNmMC45MC43aXNpZ25hdHVyZXhNc2VsZiNqdW1iZj0vYzJwYS91cm46YzJwYTo1NzdlOThlZi1hYmYxLTRhOWYtYmQ0MS03NzVkNWQwOTAyN2MvYzJwYS5zaWduYXR1cmVyY3JlYXRlZF9hc3NlcnRpb25zgqJjdXJseCpzZWxmI2p1bWJmPWMycGEuYXNzZXJ0aW9ucy9jMnBhLmFjdGlvbnMudjJkaGFzaFgg9+/golxBxXRVtKxgfAftVJ3ggGxo1VHd1XLxdLTmTvGiY3VybHgpc2VsZiNqdW1iZj1jMnBhLmFzc2VydGlvbnMvYzJwYS5oYXNoLmRhdGFkaGFzaFggTmC9Qs/IWxGW4UDSjrS34+pWROINuOAODF2FAFr6qiloZGM6dGl0bGV4GlJlY3JhZnQgQUkgR2VuZXJhdGVkIEltYWdlY2FsZ2ZzaGEyNTYAAAfcanVtYgAAAChqdW1kYzJjcwARABCAAACqADibcQNjMnBhLnNpZ25hdHVyZQAAAAesY2JvctKEWQOwogEmGCGCWQHnMIIB4zCCAYmgAwIBAgIJALfeWmNDUW56MAoGCCqGSM49BAMCMEAxHzAdBgNVBAMMFlJlY3JhZnQgU3RhZ2luZyBEZXYgQ0ExEDAOBgNVBAoMB1JlY3JhZnQxCzAJBgNVBAYTAlVTMB4XDTI2MDYxMjE5NDM1MFoXDTI3MDYxMjE5NDM1MFowNzELMAkGA1UEBhMCVVMxEzARBgNVBAoTClJlY3JhZnQgQUkxEzARBgNVBAMTCnJlY3JhZnQuYWkwWTATBgcqhkjOPQIBBggqhkjOPQMBBwNCAARKaTVbACsg/DeG3LeOxYdID/VA6EFG73E6Oknb+KIiCFJygRUz4ueN2z/t2qYb6CIUvS8RvgOiiClfoqsYtw81o3UwczAMBgNVHRMBAf8EAjAAMA4GA1UdDwEB/wQEAwIGwDATBgNVHSUEDDAKBggrBgEFBQcDBDAdBgNVHQ4EFgQULzHpBen96SL1y4IPHa8MkMshXf0wHwYDVR0jBBgwFoAUAgsqOBrKqpdK//m/kxZo7ZR4ebcwCgYIKoZIzj0EAwIDSAAwRQIgU8hKW0aXvvk8SQgVFNkax69Ym9ae8GsT2RZTQw+B51ACIQC0D4BkEoRD4N0r2ZRkNy0HZaW3WICy/QZGN95ilF4yzFkBvTCCAbkwggFfoAMCAQICCQCc+Wg7T6ATbzAKBggqhkjOPQQDAjBAMR8wHQYDVQQDDBZSZWNyYWZ0IFN0YWdpbmcgRGV2IENBMRAwDgYDVQQKDAdSZWNyYWZ0MQswCQYDVQQGEwJVUzAeFw0yNjA2MTIxOTQwMTZaFw0yODA2MTExOTQwMTZaMEAxHzAdBgNVBAMMFlJlY3JhZnQgU3RhZ2luZyBEZXYgQ0ExEDAOBgNVBAoMB1JlY3JhZnQxCzAJBgNVBAYTAlVTMFkwEwYHKoZIzj0CAQYIKoZIzj0DAQcDQgAEQ9IQBlcVbKaKPYrQSfOhL/00s7xUDC7RinIuLO/I1k99y9yh6oWF9kPxaP+tx1v1PeOL3yrVquJ730H0ZGiDyqNCMEAwDwYDVR0TAQH/BAUwAwEB/zAOBgNVHQ8BAf8EBAMCAYYwHQYDVR0OBBYEFAILKjgayqqXSv/5v5MWaO2UeHm3MAoGCCqGSM49BAMCA0gAMEUCIFQwNImLlYDeQhjgF+ZiqTbgcuzSqmOJw3Q2lQ/hu83FAiEA9O8cLm/xfoVLqB4jtdbuHzi3WL+p2RN+DRGkwpYswVuhY3BhZFkDpAAAAAAAAAAAAAAAAAAAAAAAAAAAAAAAAAAAAAAAAAAAAAAAAAAAAAAAAAAAAAAAAAAAAAAAAAAAAAAAAAAAAAAAAAAAAAAAAAAAAAAAAAAAAAAAAAAAAAAAAAAAAAAAAAAAAAAAAAAAAAAAAAAAAAAAAAAAAAAAAAAAAAAAAAAAAAAAAAAAAAAAAAAAAAAAAAAAAAAAAAAAAAAAAAAAAAAAAAAAAAAAAAAAAAAAAAAAAAAAAAAAAAAAAAAAAAAAAAAAAAAAAAAAAAAAAAAAAAAAAAAAAAAAAAAAAAAAAAAAAAAAAAAAAAAAAAAAAAAAAAAAAAAAAAAAAAAAAAAAAAAAAAAAAAAAAAAAAAAAAAAAAAAAAAAAAAAAAAAAAAAAAAAAAAAAAAAAAAAAAAAAAAAAAAAAAAAAAAAAAAAAAAAAAAAAAAAAAAAAAAAAAAAAAAAAAAAAAAAAAAAAAAAAAAAAAAAAAAAAAAAAAAAAAAAAAAAAAAAAAAAAAAAAAAAAAAAAAAAAAAAAAAAAAAAAAAAAAAAAAAAAAAAAAAAAAAAAAAAAAAAAAAAAAAAAAAAAAAAAAAAAAAAAAAAAAAAAAAAAAAAAAAAAAAAAAAAAAAAAAAAAAAAAAAAAAAAAAAAAAAAAAAAAAAAAAAAAAAAAAAAAAAAAAAAAAAAAAAAAAAAAAAAAAAAAAAAAAAAAAAAAAAAAAAAAAAAAAAAAAAAAAAAAAAAAAAAAAAAAAAAAAAAAAAAAAAAAAAAAAAAAAAAAAAAAAAAAAAAAAAAAAAAAAAAAAAAAAAAAAAAAAAAAAAAAAAAAAAAAAAAAAAAAAAAAAAAAAAAAAAAAAAAAAAAAAAAAAAAAAAAAAAAAAAAAAAAAAAAAAAAAAAAAAAAAAAAAAAAAAAAAAAAAAAAAAAAAAAAAAAAAAAAAAAAAAAAAAAAAAAAAAAAAAAAAAAAAAAAAAAAAAAAAAAAAAAAAAAAAAAAAAAAAAAAAAAAAAAAAAAAAAAAAAAAAAAAAAAAAAAAAAAAAAAAAAAAAAAAAAAAAAAAAAAAAAAAAAAAAAAAAAAAAAAAAAAAAAAAAAAAAAAAAAAAAAAAAAAAAAAAAAAAAAAAAAAAAAAAAAAAAAAAAAAAAAAAAAAAAAAAAAAAAAAAAAAAAAAAAAAAAAAAAAAAAAAAAAAAAAAAAAAAAAAAAAAAAAAAAAAAAAAAAAAAAAAAAAAAAAAAAAAAAAAAAAAAAAAAAAAAA9lhAhv6zKVJKlige/R4X8YtNZ9tkz0DyOazN39Pfsm0nK2JYQoX4PIVNkr4olbvro9IASQFgIrk6eAEPMZecBiAUXQ==</c2pa:manifest></metadata>

<path transform="translate(0,0)" fill="rgb(255,255,255)" d="M 796.447 1233.13 C 785.842 1215.93 776.13 1192.94 770.137 1173.98 C 743.313 1088.64 751.611 996.137 793.194 916.94 C 835.081 838.176 906.348 779.116 991.521 752.585 C 1079.85 726.063 1175.07 735.379 1256.58 778.517 C 1355.16 830.747 1424.72 926.457 1431.16 1039.8 C 1432.06 1055.57 1428.5 1071.86 1433.21 1087.2 C 1442.31 1116.9 1451.78 1146.48 1460.99 1176.16 L 1515.41 1352.93 C 1473.45 1350.39 1438.95 1344.11 1398.34 1332.81 L 1386.78 1114.18 C 1301.23 1072.57 1236.94 1061.07 1148.09 1105.24 C 1158.17 1118.92 1186.44 1145.32 1200.01 1154.54 C 1251.05 1189.22 1283.86 1191.84 1341.4 1182.39 C 1345.67 1322.56 1377.16 1460.56 1434.11 1588.71 L 1429.35 1589.23 C 1339.55 1598.95 1229.21 1573.78 1158.6 1515.97 C 1091 1460.62 1057.94 1379.54 1049.28 1294.59 C 1048.49 1295.49 1047.69 1296.37 1046.88 1297.26 C 1046.78 1308.15 1042.44 1323.59 1040.03 1334.51 C 1015.61 1444.96 933.046 1512.88 822.264 1529.24 C 742.671 1541 663.667 1539.17 582.919 1531.77 C 595.6 1522.46 610.769 1514.12 623.893 1505.06 C 714.794 1442.28 789.189 1346.75 796.447 1233.13 z"/>
<path transform="translate(0,0)" fill="rgb(119,112,123)" d="M 1046.88 1297.26 C 1047.08 1295.48 1047.64 1291.09 1048.49 1289.7 L 1048.61 1289.77 C 1049.2 1290.99 1049.15 1293.24 1049.28 1294.59 C 1048.49 1295.49 1047.69 1296.37 1046.88 1297.26 z"/>
<path transform="translate(0,0)" fill="rgb(255,255,255)" d="M 1135.14 456.446 C 1257.22 452.851 1392.36 483.432 1491.93 556.412 C 1501.45 563.388 1510.43 570.617 1518.1 579.637 C 1416.57 570.239 1316.17 644.328 1298.06 745.293 C 1261.75 722.969 1217.87 707.399 1176.2 698.885 C 958.42 654.392 755.144 783.878 712.241 1004.56 C 704.885 1044.53 704.685 1069.05 708.056 1109.43 C 695.127 1113.94 681.196 1119.09 668.836 1124.95 C 627.663 1144.34 594.255 1177.08 574.04 1217.86 C 567.198 1231.79 562.5 1245.88 557.317 1260.48 C 541.875 1213.13 535.602 1155.45 532.755 1105.85 C 514.798 792.948 723.043 525.057 1031.85 467.112 C 1065.98 461.042 1100.5 457.477 1135.14 456.446 z"/>
</svg>