<svg version="1.1" xmlns="http://www.w3.org/2000/svg" style="display: block;" viewBox="0 0 2048 2048" width="1024" height="1024" preserveAspectRatio="none" xmlns:c2pa="http://c2pa.org/manifest"><metadata><c2pa:manifest>AAAMZ2p1bWIAAAAeanVtZGMycGEAEQAQgAAAqgA4m3EDYzJwYQAAAAxBanVtYgAAAEdqdW1kYzJtYQARABCAAACqADibcQN1cm46YzJwYTowMjEzZmQ4OC05YWU1LTQwYTctYjFjZS1iNDNkNzc0ZTM2N2IAAAAB4mp1bWIAAAApanVtZGMyYXMAEQAQgAAAqgA4m3EDYzJwYS5hc3NlcnRpb25zAAAAAO1qdW1iAAAAQWp1bWRjYm9yABEAEIAAAKoAOJtxE2MycGEuYWN0aW9ucy52MgAAAAAYYzJzaA208c6GtRkxWOK0E8lRcfsAAACkY2JvcqFnYWN0aW9uc4GjZmFjdGlvbmxjMnBhLmNyZWF0ZWRxZGlnaXRhbFNvdXJjZVR5cGV4Rmh0dHA6Ly9jdi5pcHRjLm9yZy9uZXdzY29kZXMvZGlnaXRhbHNvdXJjZXR5cGUvdHJhaW5lZEFsZ29yaXRobWljTWVkaWFrZGVzY3JpcHRpb252Q3JlYXRlZCBieSBSZWNyYWZ0IEFJLgAAAMRqdW1iAAAAQGp1bWRjYm9yABEAEIAAAKoAOJtxE2MycGEuaGFzaC5kYXRhAAAAABhjMnNoUPJFtHSzGqNalcQEx8AVvQAAAHxjYm9ypWpleGNsdXNpb25zgaJlc3RhcnQY22ZsZW5ndGgZEIxkbmFtZW5qdW1iZiBtYW5pZmVzdGNhbGdmc2hhMjU2ZGhhc2hYIID0jikXZoIhRgffUH1OQRv3fNlvlY6xhZOGXoVtMozYY3BhZEkAAAAAAAAAAAAAAAI0anVtYgAAACdqdW1kYzJjbAARABCAAACqADibcQNjMnBhLmNsYWltLnYyAAAAAgVjYm9ypmppbnN0YW5jZUlEeCx4bXA6aWlkOmNiYWU3YjcwLTBhMDQtNDA3YS1hOTE1LWFjZjA1MzRlMWNiNHRjbGFpbV9nZW5lcmF0b3JfaW5mb6NkbmFtZWpyZWNyYWZ0LmFpZ3ZlcnNpb254KDgxY2U4MmUyYzVjM2NiZmJlOGM2ZmJlMTc5ZDVmOGQ5MWM0MDljZTF3b3JnLmNvbnRlbnRhdXRoLmMycGFfcnNmMC45MC43aXNpZ25hdHVyZXhNc2VsZiNqdW1iZj0vYzJwYS91cm46YzJwYTowMjEzZmQ4OC05YWU1LTQwYTctYjFjZS1iNDNkNzc0ZTM2N2IvYzJwYS5zaWduYXR1cmVyY3JlYXRlZF9hc3NlcnRpb25zgqJjdXJseCpzZWxmI2p1bWJmPWMycGEuYXNzZXJ0aW9ucy9jMnBhLmFjdGlvbnMudjJkaGFzaFggILG8rSfKM9lS+LeD0g2iOK6AfXA/zVGVMJWA8oEizRiiY3VybHgpc2VsZiNqdW1iZj1jMnBhLmFzc2VydGlvbnMvYzJwYS5oYXNoLmRhdGFkaGFzaFggEcIt7c07oUzu6eKVuXcJverKzvofFdH5joHqwiGzEu1oZGM6dGl0bGV4GlJlY3JhZnQgQUkgR2VuZXJhdGVkIEltYWdlY2FsZ2ZzaGEyNTYAAAfcanVtYgAAAChqdW1kYzJjcwARABCAAACqADibcQNjMnBhLnNpZ25hdHVyZQAAAAesY2JvctKEWQOwogEmGCGCWQHnMIIB4zCCAYmgAwIBAgIJALfeWmNDUW56MAoGCCqGSM49BAMCMEAxHzAdBgNVBAMMFlJlY3JhZnQgU3RhZ2luZyBEZXYgQ0ExEDAOBgNVBAoMB1JlY3JhZnQxCzAJBgNVBAYTAlVTMB4XDTI2MDYxMjE5NDM1MFoXDTI3MDYxMjE5NDM1MFowNzELMAkGA1UEBhMCVVMxEzARBgNVBAoTClJlY3JhZnQgQUkxEzARBgNVBAMTCnJlY3JhZnQuYWkwWTATBgcqhkjOPQIBBggqhkjOPQMBBwNCAARKaTVbACsg/DeG3LeOxYdID/VA6EFG73E6Oknb+KIiCFJygRUz4ueN2z/t2qYb6CIUvS8RvgOiiClfoqsYtw81o3UwczAMBgNVHRMBAf8EAjAAMA4GA1UdDwEB/wQEAwIGwDATBgNVHSUEDDAKBggrBgEFBQcDBDAdBgNVHQ4EFgQULzHpBen96SL1y4IPHa8MkMshXf0wHwYDVR0jBBgwFoAUAgsqOBrKqpdK//m/kxZo7ZR4ebcwCgYIKoZIzj0EAwIDSAAwRQIgU8hKW0aXvvk8SQgVFNkax69Ym9ae8GsT2RZTQw+B51ACIQC0D4BkEoRD4N0r2ZRkNy0HZaW3WICy/QZGN95ilF4yzFkBvTCCAbkwggFfoAMCAQICCQCc+Wg7T6ATbzAKBggqhkjOPQQDAjBAMR8wHQYDVQQDDBZSZWNyYWZ0IFN0YWdpbmcgRGV2IENBMRAwDgYDVQQKDAdSZWNyYWZ0MQswCQYDVQQGEwJVUzAeFw0yNjA2MTIxOTQwMTZaFw0yODA2MTExOTQwMTZaMEAxHzAdBgNVBAMMFlJlY3JhZnQgU3RhZ2luZyBEZXYgQ0ExEDAOBgNVBAoMB1JlY3JhZnQxCzAJBgNVBAYTAlVTMFkwEwYHKoZIzj0CAQYIKoZIzj0DAQcDQgAEQ9IQBlcVbKaKPYrQSfOhL/00s7xUDC7RinIuLO/I1k99y9yh6oWF9kPxaP+tx1v1PeOL3yrVquJ730H0ZGiDyqNCMEAwDwYDVR0TAQH/BAUwAwEB/zAOBgNVHQ8BAf8EBAMCAYYwHQYDVR0OBBYEFAILKjgayqqXSv/5v5MWaO2UeHm3MAoGCCqGSM49BAMCA0gAMEUCIFQwNImLlYDeQhjgF+ZiqTbgcuzSqmOJw3Q2lQ/hu83FAiEA9O8cLm/xfoVLqB4jtdbuHzi3WL+p2RN+DRGkwpYswVuhY3BhZFkDpAAAAAAAAAAAAAAAAAAAAAAAAAAAAAAAAAAAAAAAAAAAAAAAAAAAAAAAAAAAAAAAAAAAAAAAAAAAAAAAAAAAAAAAAAAAAAAAAAAAAAAAAAAAAAAAAAAAAAAAAAAAAAAAAAAAAAAAAAAAAAAAAAAAAAAAAAAAAAAAAAAAAAAAAAAAAAAAAAAAAAAAAAAAAAAAAAAAAAAAAAAAAAAAAAAAAAAAAAAAAAAAAAAAAAAAAAAAAAAAAAAAAAAAAAAAAAAAAAAAAAAAAAAAAAAAAAAAAAAAAAAAAAAAAAAAAAAAAAAAAAAAAAAAAAAAAAAAAAAAAAAAAAAAAAAAAAAAAAAAAAAAAAAAAAAAAAAAAAAAAAAAAAAAAAAAAAAAAAAAAAAAAAAAAAAAAAAAAAAAAAAAAAAAAAAAAAAAAAAAAAAAAAAAAAAAAAAAAAAAAAAAAAAAAAAAAAAAAAAAAAAAAAAAAAAAAAAAAAAAAAAAAAAAAAAAAAAAAAAAAAAAAAAAAAAAAAAAAAAAAAAAAAAAAAAAAAAAAAAAAAAAAAAAAAAAAAAAAAAAAAAAAAAAAAAAAAAAAAAAAAAAAAAAAAAAAAAAAAAAAAAAAAAAAAAAAAAAAAAAAAAAAAAAAAAAAAAAAAAAAAAAAAAAAAAAAAAAAAAAAAAAAAAAAAAAAAAAAAAAAAAAAAAAAAAAAAAAAAAAAAAAAAAAAAAAAAAAAAAAAAAAAAAAAAAAAAAAAAAAAAAAAAAAAAAAAAAAAAAAAAAAAAAAAAAAAAAAAAAAAAAAAAAAAAAAAAAAAAAAAAAAAAAAAAAAAAAAAAAAAAAAAAAAAAAAAAAAAAAAAAAAAAAAAAAAAAAAAAAAAAAAAAAAAAAAAAAAAAAAAAAAAAAAAAAAAAAAAAAAAAAAAAAAAAAAAAAAAAAAAAAAAAAAAAAAAAAAAAAAAAAAAAAAAAAAAAAAAAAAAAAAAAAAAAAAAAAAAAAAAAAAAAAAAAAAAAAAAAAAAAAAAAAAAAAAAAAAAAAAAAAAAAAAAAAAAAAAAAAAAAAAAAAAAAAAAAAAAAAAAAAAAAAAAAAAAAAAAAAAAAAAAAAAAAAAAAAAAAAAAAAAAAAAAAAAAAAAAAAAAAAAAAAAAAAAAAAAAAAAAAAAAAAAAAAAAAAAAAAAAAAAAAAAAAAAAAAAAAAAAAAAAAAAAAAAAAAAAAAAAAAAAAAAAAAAAAAAAAAAAAAAAAAAAAAAAAAAAAAAAAAA9lhAj2XNXqmhM3qJyWdwNSeRH1Wxv1sjsEnLQLd0NT5e3ossUoottKA1XF/1EQDJIOLA/FGGTtjhHDBFW7bSaBL/Xw==</c2pa:manifest></metadata>
<path transform="translate(0,0)" fill="rgb(0,0,0)" d="M 0 0 L 2048 0 L 2048 2048 L 0 2048 L 0 0 z"/>
<path transform="translate(0,0)" fill="rgb(255,255,255)" d="M 740.188 1025.62 C 730.907 1010.31 721.422 994.412 714.998 977.525 C 671.811 864.004 705.844 741.989 805.538 669.51 C 947.603 566.226 1169.24 579.309 1289.18 711.435 C 1298.42 721.605 1307.57 733.986 1314.64 745.865 C 1350.47 807.119 1360.45 880.117 1342.37 948.74 C 1335.7 974.548 1323.24 1004.9 1307.42 1026.3 C 1294.17 998.307 1292.47 982.005 1292.99 950.899 L 1294.43 941.587 L 1292.18 942.021 L 1289.69 951.954 C 1284.42 979.264 1282.48 1007.73 1294.45 1034 C 1302.3 1051.42 1314.76 1063.9 1318.29 1083.27 C 1322.81 1108.09 1317.4 1128.04 1303.77 1148.81 C 1283.82 1179.22 1246.93 1190.06 1215.06 1204.35 C 1165.85 1226.41 1174.28 1241.44 1174.4 1287.16 C 1174.41 1296.67 1174.01 1306.18 1173.2 1315.66 C 1200.3 1271.02 1183.04 1225.42 1249.34 1209.32 C 1240.44 1233.54 1237.59 1244.15 1235.85 1269.57 C 1233.92 1297.75 1247.69 1335.47 1235.72 1360 C 1218.27 1395.79 1174.77 1414.02 1140.39 1427.12 C 1051.41 1461.01 968.353 1456.67 882.183 1417.05 C 851.555 1404.58 801.826 1369.49 807.391 1329.9 C 814.457 1279.65 816.457 1257.95 798.378 1207.93 C 862.982 1225.4 847.613 1266.71 876.352 1315.07 C 875.506 1304.66 875.081 1294.22 875.077 1283.78 C 875.132 1274.57 876.114 1248.56 874.191 1241.66 C 861.612 1203.07 803.819 1197.86 773.763 1176.53 C 731.566 1148.96 712.999 1094.14 744.51 1050.88 C 766.814 1020.26 765.577 982.358 757.759 946.143 L 755.871 946.7 C 756.894 976.759 754.144 998.739 740.188 1025.62 z"/>
<path transform="translate(0,0)" fill="rgb(93,91,96)" d="M 754.888 937.81 L 756.133 937.867 C 756.893 940.859 757.127 943.178 757.759 946.143 L 755.871 946.7 C 755.045 942.801 755.083 941.916 754.888 937.81 z"/>
<path transform="translate(0,0)" fill="rgb(121,123,127)" d="M 1292.18 942.021 C 1292.47 940.863 1293.39 935.247 1294.58 934.619 L 1294.74 934.701 L 1294.59 934.883 L 1295.02 936.503 L 1295.07 936.261 C 1295.04 938.189 1294.76 939.713 1294.43 941.587 L 1292.18 942.021 z"/>
<path transform="translate(0,0)" fill="rgb(211,211,214)" d="M 754.888 937.81 C 754.548 936.965 752.992 933.181 754.575 932.663 C 756.391 933.202 756.091 936.525 756.133 937.867 L 754.888 937.81 z"/>
<path transform="translate(0,0)" fill="rgb(0,0,0)" d="M 1129.02 931.195 C 1146.66 930.207 1174.96 941.832 1190.93 948.953 C 1221.28 962.491 1254.41 980.367 1234.82 1018.48 C 1223.5 1040.51 1215.66 1055.18 1191.5 1064.34 C 1189.89 1064.8 1188.26 1065.23 1186.62 1065.62 C 1164.18 1070.99 1130.52 1063.06 1111.28 1051.26 C 1079.02 1031.49 1073.63 987.495 1093.85 957.057 C 1103.02 943.265 1112.68 934.8 1129.02 931.195 z"/>
<path transform="translate(0,0)" fill="rgb(0,0,0)" d="M 911.499 931.289 C 928.42 929.24 943.222 939.416 952.404 953.039 C 972.862 982.826 971.364 1028.95 939.201 1050.1 C 918.855 1063.47 888.266 1070.27 864.252 1065.51 C 838.886 1059.46 827.854 1044.36 815.803 1022.78 C 793.282 982.451 823.712 964.257 856.729 949.034 C 874.137 941.009 891.744 934.438 911.499 931.289 z"/>
<path transform="translate(0,0)" fill="rgb(0,0,0)" d="M 1008.15 1076.85 C 1023.83 1077.35 1016.64 1086.65 1023.56 1090.96 C 1027.01 1089.89 1031.87 1071.73 1040.25 1077.5 C 1055.67 1088.09 1072.13 1135.42 1067.98 1152.99 C 1065.51 1163.46 1051.3 1172.53 1040.05 1167.78 C 1032.55 1161.73 1029.76 1158.16 1024.4 1150.34 C 1018.4 1158.52 1011.56 1171.14 999.497 1168.98 C 985.958 1166.7 977.232 1152.34 980.116 1139 C 984.312 1119.6 991.686 1089.21 1008.15 1076.85 z"/>
</svg>